<svg id="Layer_3" enable-background="new 0 0 64 64" height="512" viewBox="0 0 64 64" width="512" xmlns="http://www.w3.org/2000/svg"><g><g><path d="m3.2 52.9c-.755-.567-1.2-1.456-1.2-2.4v-3.5l2.342 1.171c1.016.508 1.658 1.547 1.658 2.683v4.146z" fill="#52565a"/></g><g><path d="m32 45c0 2.761-2.686 5-6 5s-6-2.239-6-5" fill="#c66b60"/></g><g><path d="m48 56.141v-.141l.328-1.312c1.11-4.442 1.672-9.003 1.672-13.582v-.18c-.964 1.54-2.232 2.895-3.789 3.933l-.211.141-.064.05c-.106 3.303-.341 6.601-.706 9.886l-.177 1.59c.578-.325 1.236-.526 1.947-.526.347 0 .679.058 1 .141z" fill="#a8b0bc"/></g><g><path d="m17.036 56.153-.036-.153.434-3.04c.377-2.637.566-5.297.566-7.96v-.381c-.36-.106-.724-.194-1.08-.312l-.79-.263c-1.561 3.822-2.615 7.838-3.128 11.945l-.002.011h-1c.735 0 1.417.204 2.005.552.589-.342 1.265-.552 1.995-.552.361 0 .704.063 1.036.153z" fill="#a8b0bc"/></g><g><path d="m16 56c2.209 0 4 1.791 4 4v2h-8v-2c0-2.209 1.791-4 4-4z" fill="#52565a"/></g><g><path d="m47 56c2.209 0 4 1.791 4 4v2h-8v-2c0-2.209 1.791-4 4-4z" fill="#52565a"/></g><g><path d="m12 56c2.209 0 4 1.791 4 4v2h-8v-2c0-2.209 1.791-4 4-4z" fill="#52565a"/></g><g><path d="m43 56c2.209 0 4 1.791 4 4v2h-8v-2c0-2.209 1.791-4 4-4z" fill="#52565a"/></g><g><path d="m52 34v.043c0 4.347-2.172 8.406-5.789 10.817l-.211.14-.064.05c-.106 3.303-.341 6.601-.706 9.886l-.23 2.064h-4l-.292-1.314c-.852-3.834-1.387-7.732-1.6-11.654l-.002-.032h-.106l-.92.307c-3.365 1.121-6.888 1.693-10.435 1.693h-.29c-3.547 0-7.071-.572-10.436-1.693l-.79-.263c-1.561 3.822-2.615 7.838-3.128 11.945l-.001.011h-3l-3-12-.906-13.59c-.062-.934.022-1.873.249-2.781l.107-.427c.928-3.714 4.104-6.434 7.916-6.78l15.634-1.422v-3c0-2.209 1.791-4 4-4h3" fill="#e3e4e5"/></g><g><path d="m36 29-.98-13.725c-.013-.183-.02-.367-.02-.55 0-4.267 3.458-7.725 7.724-7.725h6.551c4.267 0 7.725 3.458 7.725 7.724 0 .184-.007.367-.02.55l-.98 13.726" fill="#e3e4e5"/></g><g><path d="m40 8-.336-.504c-1.085-1.627-1.664-3.54-1.664-5.496l-2.25 1.687c-1.102.827-1.75 2.124-1.75 3.501 0 1.16.461 2.273 1.282 3.094l.718.718" fill="#efbe9a"/></g><g><path d="m52 8 .336-.504c1.085-1.627 1.664-3.54 1.664-5.496l2.25 1.687c1.102.827 1.75 2.124 1.75 3.501 0 1.16-.461 2.273-1.282 3.094l-.718.718" fill="#efbe9a"/></g><g><path d="m35 12h-.697c-1.439 0-2.782.719-3.58 1.916-.472.707-.723 1.537-.723 2.387v2.697h1.218c1.141 0 2.236-.453 3.043-1.26l.739-.74" fill="#c66b60"/></g><g><path d="m57 12h.697c1.439 0 2.782.719 3.58 1.916.472.707.723 1.537.723 2.387v2.697h-1.218c-1.141 0-2.236-.453-3.043-1.26l-.739-.74" fill="#c66b60"/></g><g><path d="m43 24c1.075 0 2.09.178 3 .488.91-.31 1.925-.488 3-.488 3.866 0 7 2.239 7 5s-3.134 5-7 5c-1.075 0-2.09-.178-3-.488-.91.31-1.925.488-3 .488-3.866 0-7-2.239-7-5s3.134-5 7-5z" fill="#c66b60"/></g><g><path d="m49.276 7h-.567c-1.661 1.466-2.709 3.611-2.709 6 0 4.418 3.582 8 8 8 .913 0 1.786-.161 2.603-.442l.377-5.283c.013-.183.02-.367.02-.55 0-4.267-3.458-7.725-7.724-7.725z" fill="#52565a"/></g><g><path d="m16 20c-.628.836-1 1.874-1 3 0 2.761 2.239 5 5 5s5-2.239 5-5c0-1.126-.372-2.165-1-3" fill="#52565a"/></g><g><path d="m26 30c2.209 0 4 1.791 4 4 0 .05-.013.096-.015.146.326-.086.662-.146 1.015-.146 2.209 0 4 1.791 4 4s-1.791 4-4 4-4-1.791-4-4c0-.05.013-.096.015-.146-.326.086-.662.146-1.015.146-2.209 0-4-1.791-4-4s1.791-4 4-4z" fill="#52565a"/></g><g><path d="m7 42c2.761 0 5-2.239 5-5s-2.239-5-5-5" fill="#52565a"/></g><g><path d="m49 35c-1.031 0-2.038-.147-3-.438-.962.291-1.969.438-3 .438-4.411 0-8-2.691-8-6s3.589-6 8-6c1.031 0 2.038.147 3 .438.962-.291 1.969-.438 3-.438 4.411 0 8 2.691 8 6s-3.589 6-8 6zm-3-2.487c.108 0 .217.018.321.053.85.288 1.751.434 2.679.434 3.252 0 6-1.832 6-4s-2.748-4-6-4c-.928 0-1.829.146-2.679.435-.209.07-.434.07-.643 0-.849-.289-1.75-.435-2.678-.435-3.252 0-6 1.832-6 4s2.748 4 6 4c.928 0 1.829-.146 2.679-.435.104-.035.213-.052.321-.052z"/></g><g><path d="m51.5 30c-.827 0-1.5-.673-1.5-1.5s.673-1.5 1.5-1.5 1.5.673 1.5 1.5-.673 1.5-1.5 1.5z"/></g><g><path d="m40.5 30c-.827 0-1.5-.673-1.5-1.5s.673-1.5 1.5-1.5 1.5.673 1.5 1.5-.673 1.5-1.5 1.5z"/></g><g><path d="m56.997 29.071-1.994-.143.98-13.726c.011-.156.017-.317.017-.477 0-3.708-3.017-6.725-6.725-6.725h-6.551c-3.707 0-6.724 3.017-6.724 6.725 0 .16.006.321.018.48l.979 13.724-1.994.143-.98-13.726c-.015-.208-.023-.414-.023-.621 0-4.811 3.914-8.725 8.725-8.725h6.551c4.81 0 8.724 3.914 8.724 8.725 0 .207-.008.413-.021.619z"/></g><g><path d="m52.5 18c-.827 0-1.5-.673-1.5-1.5s.673-1.5 1.5-1.5 1.5.673 1.5 1.5-.673 1.5-1.5 1.5z"/></g><g><path d="m39.5 18c-.827 0-1.5-.673-1.5-1.5s.673-1.5 1.5-1.5 1.5.673 1.5 1.5-.673 1.5-1.5 1.5z"/></g><g><path d="m35.293 11.707-.719-.719c-1.015-1.014-1.574-2.365-1.574-3.8 0-1.683.804-3.29 2.15-4.3l2.25-1.688c.302-.228.709-.262 1.047-.095.339.17.553.516.553.895 0 1.764.518 3.473 1.496 4.941l.336.504-1.664 1.109-.336-.504c-.847-1.271-1.411-2.688-1.67-4.172l-.812.609c-.845.634-1.35 1.644-1.35 2.701 0 .889.36 1.759.988 2.387l.719.719z"/></g><g><path d="m56.707 11.707-1.414-1.414.719-.719c.628-.628.988-1.498.988-2.386 0-1.057-.505-2.066-1.35-2.7l-.812-.608c-.259 1.484-.823 2.901-1.67 4.172l-.336.504-1.664-1.109.336-.504c.978-1.47 1.496-3.179 1.496-4.943 0-.379.214-.725.553-.895.338-.167.744-.133 1.047.095l2.25 1.688c1.347 1.01 2.15 2.617 2.15 4.3 0 1.436-.559 2.786-1.574 3.801z"/></g><g><path d="m31.218 20h-1.218c-.553 0-1-.447-1-1v-2.697c0-1.051.308-2.068.891-2.941.985-1.479 2.634-2.362 4.412-2.362h.697v2h-.697c-1.107 0-2.135.55-2.748 1.471-.364.544-.555 1.177-.555 1.832v1.697h.218c.882 0 1.711-.344 2.335-.967l.74-.74 1.414 1.414-.74.74c-1.001 1.001-2.333 1.553-3.749 1.553z"/></g><g><path d="m62 20h-1.218c-1.416 0-2.748-.552-3.749-1.553l-.74-.74 1.414-1.414.74.74c.624.623 1.453.967 2.335.967h.218v-1.697c0-.654-.191-1.288-.555-1.832-.613-.921-1.64-1.471-2.748-1.471h-.697v-2h.697c1.777 0 3.427.883 4.412 2.361.583.873.891 1.891.891 2.942v2.697c0 .553-.447 1-1 1z"/></g><g><path d="m54 22c-4.963 0-9-4.037-9-9 0-2.581 1.11-5.041 3.047-6.75l1.324 1.5c-1.507 1.329-2.371 3.243-2.371 5.25 0 3.859 3.141 7 7 7 .909 0 1.792-.171 2.624-.509l.752 1.854c-1.072.434-2.208.655-3.376.655z"/></g><g><path d="m9.03 56.242-3-12c-.015-.058-.024-.116-.028-.176l-.906-13.59c-.069-1.04.023-2.08.277-3.091l.105-.426c1.031-4.123 4.566-7.15 8.797-7.535l15.634-1.421.182 1.992-15.634 1.421c-3.385.308-6.213 2.729-7.038 6.026l-.106.428c-.203.81-.277 1.642-.222 2.474l.9 13.5 2.978 11.914z"/></g><g><path d="m16 63h-8c-.553 0-1-.447-1-1v-2c0-2.757 2.243-5 5-5s5 2.243 5 5v2c0 .553-.447 1-1 1zm-7-2h6v-1c0-1.654-1.346-3-3-3s-3 1.346-3 3z"/></g><g><path d="m20 63h-4v-2h3v-1c0-1.654-1.346-3-3-3-.528 0-1.047.139-1.498.4l-1.004-1.73c.757-.439 1.621-.67 2.502-.67 2.757 0 5 2.243 5 5v2c0 .553-.447 1-1 1z"/></g><g><path d="m13.993 56.112-1.989-.195.001-.012c.681-5.453 2.261-10.672 4.701-15.554l.399-.799 1.789.895-.399.799c-2.339 4.678-3.853 9.68-4.502 14.866z"/></g><g><path d="m17.99 56.142-1.98-.283.435-3.04c.368-2.585.555-5.215.555-7.819h2c0 2.697-.193 5.423-.575 8.102z"/></g><g><path d="m27.645 47h-.289c-3.66 0-7.277-.587-10.752-1.745l-.92-.307.633-1.896.92.307c3.269 1.088 6.673 1.641 10.118 1.641h.289c3.445 0 6.85-.553 10.119-1.642l.92-.307.633 1.896-.92.307c-3.474 1.159-7.091 1.746-10.751 1.746z"/></g><g><path d="m11 59h2v3h-2z"/></g><g><path d="m47 63h-8c-.553 0-1-.447-1-1v-2c0-2.757 2.243-5 5-5s5 2.243 5 5v2c0 .553-.447 1-1 1zm-7-2h6v-1c0-1.654-1.346-3-3-3s-3 1.346-3 3z"/></g><g><path d="m51 63h-4v-2h3v-1c0-1.654-1.346-3-3-3-.528 0-1.047.139-1.498.4l-1.004-1.73c.757-.439 1.621-.67 2.502-.67 2.757 0 5 2.243 5 5v2c0 .553-.447 1-1 1z"/></g><g><path d="m42 59h2v3h-2z"/></g><g><path d="m40.023 57.217-.285-1.284c-1.153-5.193-1.738-10.52-1.738-15.836l2-.097c0 5.267.569 10.449 1.691 15.499l.285 1.284z"/></g><g><path d="m45.994 57.11-1.988-.221.229-2.064c.508-4.562.765-9.206.765-13.804l2-.021c0 4.692-.262 9.411-.776 14.046z"/></g><g><path d="m46.555 45.832-1.109-1.664.211-.141c3.345-2.23 5.343-5.963 5.343-9.984l2-.043v.043c0 4.691-2.331 9.046-6.234 11.648z"/></g><g><path d="m48.97 56.243-1.939-.486.328-1.312c1.088-4.358 1.641-8.846 1.641-13.339v-.106h2v.106c0 4.655-.572 9.307-1.702 13.824z"/></g><g><path d="m6 56c-.212 0-.424-.067-.6-.2l-2.8-2.1c-1.002-.752-1.6-1.948-1.6-3.2v-18.22c0-4.73 3.177-8.942 7.726-10.242l.549 1.924c-3.695 1.055-6.275 4.476-6.275 8.318v14.102l1.789.895c1.363.681 2.211 2.052 2.211 3.577v4.146c0 .379-.214.725-.553.895-.141.07-.295.105-.447.105zm-3-7.382v1.882c0 .626.299 1.225.801 1.601l1.199.899v-2.146c0-.763-.424-1.448-1.105-1.789z"/></g><g><path d="m20 29c-3.309 0-6-2.691-6-6 0-1.31.415-2.555 1.2-3.601l1.6 1.201c-.524.697-.8 1.527-.8 2.4 0 2.206 1.794 4 4 4s4-1.794 4-4c0-.874-.276-1.704-.799-2.399l1.598-1.201c.786 1.043 1.201 2.288 1.201 3.6 0 3.309-2.691 6-6 6z"/></g><g><path d="m31 43c-2.415 0-4.436-1.721-4.899-4.001-.035.001-.068.001-.101.001-2.757 0-5-2.243-5-5s2.243-5 5-5c2.415 0 4.436 1.721 4.899 4.001.035-.001.068-.001.101-.001 2.757 0 5 2.243 5 5s-2.243 5-5 5zm-3.985-6.146c.226 0 .447.076.627.221.247.199.385.503.372.819-.001.034-.012.134-.017.168.003 1.592 1.349 2.938 3.003 2.938s3-1.346 3-3-1.346-3-3-3c-.225 0-.466.036-.76.113-.308.08-.634.011-.881-.187s-.386-.503-.373-.819c.001-.034.012-.136.017-.169-.003-1.592-1.349-2.938-3.003-2.938s-3 1.346-3 3 1.346 3 3 3c.224 0 .466-.036.763-.113.083-.022.168-.033.252-.033z"/></g><g><path d="m7 43v-2c2.206 0 4-1.794 4-4s-1.794-4-4-4v-2c3.309 0 6 2.691 6 6s-2.691 6-6 6z"/></g><g><path d="m26 51c-3.859 0-7-2.691-7-6h2c0 2.206 2.243 4 5 4s5-1.794 5-4h2c0 3.309-3.141 6-7 6z"/></g><g><g><path d="m23 50h2v3h-2z"/></g></g><g><g><path d="m27 50h2v3h-2z"/></g></g></g></svg>