<svg height="512" viewBox="0 0 512 512" width="512" xmlns="http://www.w3.org/2000/svg"><g id="Ducks"><g id="Filled"><path d="m168 472h48a0 0 0 0 1 0 0v32a0 0 0 0 1 0 0h-80a0 0 0 0 1 0 0 32 32 0 0 1 32-32z" fill="#e58b6c"/><path d="m477.692 166.769c-30.154 0-37.692 7.539-37.692 7.539-115.433 0-200.5 28.056-239.363 43.254a15.073 15.073 0 0 1 -20.461-15.648c1.843-17.214 44-112.074 43.5-134.955a60.308 60.308 0 1 0 -90.447 53.568c-.451 43.373-44.648 113.457-45.229 161.373 0 65.225 62.776 118.1 128 118.1h52.923c99.921 0 178.615-73 178.615-172.923s30.154-15.077 30.154-60.308z" fill="#efebe8"/><path d="m128 96h-96a24 24 0 0 1 -24-24l96.078-19.216a20 20 0 0 1 23.922 19.616z" fill="#f09b73"/><path d="m224 472h48a0 0 0 0 1 0 0 32 32 0 0 1 -32 32h-48a0 0 0 0 1 0 0 32 32 0 0 1 32-32z" fill="#f09b73"/><path d="m236.958 472a63.954 63.954 0 0 1 -19.653 32h22.695a32 32 0 0 0 32-32z" fill="#e58b6c"/><path d="m477.692 166.769c-30.154 0-37.692 7.539-37.692 7.539-24.626 0-47.864 1.28-69.572 3.436-25.867 114.256-140.542 192.498-258.756 170.656 24.159 31.15 63.768 51.6 104.328 51.6h52.923c99.921 0 178.615-73 178.615-172.923s30.154-15.077 30.154-60.308z" fill="#e2dbd5"/><path d="m104.078 52.784-17.478 3.495a69.418 69.418 0 0 1 -23.772 39.721h65.172v-23.6a20 20 0 0 0 -23.922-19.616z" fill="#e58b6c"/><circle cx="36" cy="84" fill="#f2bba5" r="12"/><circle cx="204" cy="44" fill="#fff" r="12"/><circle cx="208" cy="80" fill="#fff" r="8"/><circle cx="64" cy="72" fill="#f2bba5" r="8"/><path d="m360 424s16-23.519 16-36a36 36 0 1 0 -48 33.943v18.057a40 40 0 0 0 40 40 56 56 0 0 0 56-56z" fill="#f8e868"/><path d="m424 424h-19.194a92.112 92.112 0 0 1 -62.953 46.257 39.834 39.834 0 0 0 26.147 9.743 56 56 0 0 0 56-56z" fill="#eed60f"/><circle cx="360" cy="368" fill="#fcf5be" r="8"/><path d="m440 424s16-23.519 16-36a36 36 0 1 0 -48 33.943v18.057a40 40 0 0 0 40 40 56 56 0 0 0 56-56z" fill="#f8e868"/><path d="m504 424h-19.194a92.112 92.112 0 0 1 -62.953 46.257 39.834 39.834 0 0 0 26.147 9.743 56 56 0 0 0 56-56z" fill="#f6e23d"/><circle cx="440" cy="368" fill="#fcf5be" r="8"/></g><g id="Outline"><path d="m136 96v-23.6a28 28 0 0 0 -33.491-27.457l-96.078 19.212c-14.946 2.99-3.39 39.845 25.569 39.845h96a8 8 0 0 0 8-8zm-16-8h-88a16.027 16.027 0 0 1 -14.708-9.7c89.727-16.411 90.555-21.546 98.316-15.184 6.814 5.584 3.56 13.139 4.392 24.884z"/><path d="m408.35 183.031c33.938-1.568 34.166.7 37.151-2.872 1.16-.75 7.387-4.243 23.815-5.166-2.132 22.811-14.137 38.7-25.354 44.932a8 8 0 0 0 -4.422 7.155c0 32.114-8.694 62.765-25.142 88.638-5.707 8.978 7.918 17.368 13.5 8.584 17.312-27.234 26.81-59.213 27.587-92.745 17.1-11.9 30.2-34.46 30.2-64.787a8 8 0 0 0 -8-8c-23.751 0-35.172 4.425-40.268 7.544-10.028.037-20.044.283-29.812.735a8 8 0 0 0 .74 15.982z"/><path d="m129.038 28.859c33.452-29.174 85.681-5.459 86.644 38.276.453 20.714-41.468 115.327-43.456 133.919a23.074 23.074 0 0 0 20.654 25.44 129.985 129.985 0 0 0 7.048 36.821 8 8 0 1 0 15.064-5.39 115.928 115.928 0 0 1 -6.253-34.893q11.877-4.5 24.29-8.56c9.821 57.452 45.834 81.528 102.971 81.528a170.6 170.6 0 0 0 71.577-16.222 8 8 0 0 0 -6.854-14.457c-37.735 17.891-96.641 22.627-127.559-4 43.245 16.477 107.383.363 145.715-31.14a8 8 0 0 0 -10.159-12.362c-50.977 41.9-152.9 51.613-159.752-8.314a657.31 657.31 0 0 1 96.493-20.74 8 8 0 1 0 -2.182-15.85c-48.625 6.7-99.853 19.32-145.556 37.2a7.067 7.067 0 0 1 -9.588-7.349c1.707-15.97 44.092-110.88 43.543-135.977-1.253-56.906-69.178-88.342-113.157-49.989a8 8 0 0 0 10.517 12.058z"/><path d="m208 440a8 8 0 0 0 16 0v-32h24a8 8 0 0 0 0-16h-32c-60.6 0-120-49.117-120-110 .514-42.486 39.915-109.156 44.712-153.13a8 8 0 1 0 -15.9-1.734c-4.665 42.716-44.235 107.049-44.812 154.764 0 67.848 62.15 121.744 128 125.841z"/><path d="m272 408a8 8 0 0 0 -8 8v48h-40c-37.2 0-50.237 48-32 48h48a40.045 40.045 0 0 0 40-40v-56a8 8 0 0 0 -8-8zm-32 88h-38.629a24.042 24.042 0 0 1 22.629-16h38.629a24.041 24.041 0 0 1 -22.629 16z"/><path d="m168 480a8 8 0 0 0 8-8c0-18.236-48-5.192-48 32a8 8 0 0 0 8 8h32a8 8 0 0 0 0-16h-22.629a24.042 24.042 0 0 1 22.629-16z"/><circle cx="160" cy="56" r="8"/><path d="m397.833 300.621c-23.368 12.858-46.863 19.379-69.833 19.379-20.895 0-51.038-3.074-75.979-17.719a8 8 0 0 0 -8.1 13.8c28.04 16.463 61.2 19.919 84.079 19.919 25.7 0 51.788-7.187 77.547-21.361a8 8 0 0 0 -7.714-14.018z"/><path d="m383.625 469.4c-27.297 9.4-47.625-8.27-47.625-29.4v-18.06a8 8 0 0 0 -5.335-7.543c-28.466-10.054-22.8-52.231 7.321-54.327a27.89 27.89 0 0 1 16.969 4.251 8 8 0 1 0 8.55-13.523 44.048 44.048 0 0 0 -65.831 25.202h-9.674a8 8 0 0 0 0 16h8.2a44.2 44.2 0 0 0 23.8 35.19v12.81a48.065 48.065 0 0 0 30.064 44.51l-5.653 16.96c-3.347 10.039 11.831 15.1 15.178 5.06l6.2-18.586c1.684.077 2.726.069 4.434.01l6.192 18.576c3.351 10.054 18.52 4.964 15.178-5.06l-5.37-16.11q1.315-.39 2.615-.836a8 8 0 1 0 -5.209-15.128z"/><circle cx="336" cy="384" r="8"/><path d="m512 424a8 8 0 0 0 -8-8h-49.737c4.72-8.561 9.737-19.629 9.737-28a44 44 0 0 0 -86.328-12h-9.672a8 8 0 0 0 0 16h8.2a44.252 44.252 0 0 0 9.906 24h-26.106a8 8 0 0 0 0 16h40v8a48.066 48.066 0 0 0 30.064 44.51l-5.653 16.96a8 8 0 1 0 15.178 5.06l6.2-18.586a44.259 44.259 0 0 0 4.43 0l6.2 18.586c3.351 10.054 18.52 4.964 15.178-5.06l-5.375-16.126a64.1 64.1 0 0 0 45.778-61.344zm-64 48a32.036 32.036 0 0 1 -32-32v-18.057a8 8 0 0 0 -5.333-7.542c-29.325-10.369-22.217-54.4 9.344-54.4a27.977 27.977 0 0 1 27.989 27.999c0 6.886-8.547 22.567-14.616 31.5a8.005 8.005 0 0 0 6.616 12.5h55.333a48.078 48.078 0 0 1 -47.333 40z"/><circle cx="416" cy="384" r="8"/><circle cx="224" cy="288" r="8"/><circle cx="376" cy="176" r="8"/></g></g></svg>