<svg id="Grupo_4" data-name="Grupo 4" xmlns="http://www.w3.org/2000/svg" width="320" height="452.682" viewBox="0 0 320 452.682">
  <path id="Caminho_2" data-name="Caminho 2" d="M167.322,366.667H145.458a27.934,27.934,0,0,0-27.912,27.912V424.77a27.934,27.934,0,0,0,27.912,27.912h21.864a27.934,27.934,0,0,0,27.912-27.912V394.579A27.9,27.9,0,0,0,167.322,366.667Z" fill="#f865a8"/>
  <path id="Caminho_3" data-name="Caminho 3" d="M13.156,132.953l40.332,5.024a27.929,27.929,0,0,0,29.54-17.817Q91.751,97.342,107.312,84.2q22.05-18.561,54.846-18.608,33.982,0,54.1,17.817c13.4,11.909,20.05,26.144,20.05,42.844a53.32,53.32,0,0,1-11.305,32.936q-7.326,9.49-44.984,39.961-37.682,30.493-50.194,54.939c-8.56,16.654-11.537,35.122-12.282,53.638A27.912,27.912,0,0,0,145.458,336.8h22.8a27.974,27.974,0,0,0,27.819-25.539c.93-10.373,2.651-18.235,5.257-23.585q6.558-13.748,33.819-36.332,52.683-43.612,68.756-68.989,16.05-25.33,16.1-53.73,0-51.288-43.728-89.969Q232.589,0,158.577,0,88.239,0,45.022,38.146,8.179,70.663.27,115.136A15.041,15.041,0,0,0,13.156,132.953Z" fill="#f865a8"/>
</svg>
